<?xml version="1.0" encoding="UTF-8" standalone="no"?><!-- Generator: Gravit.io --><svg xmlns="http://www.w3.org/2000/svg" xmlns:xlink="http://www.w3.org/1999/xlink" style="isolation:isolate" viewBox="0 0 200 400" width="200pt" height="400pt"><defs><clipPath id="_clipPath_iMu1KQPQ9SVTK6SrPQrBcGt0GtiyF8kX"><rect width="200" height="400"/></clipPath></defs><g clip-path="url(#_clipPath_iMu1KQPQ9SVTK6SrPQrBcGt0GtiyF8kX)"><path d=" M 56.098 251.254 L 12.196 295.836 L 100 295.836 L 56.098 251.254 Z " fill="rgb(191,59,62)"/><path d=" M 131.123 189.906 L 131.125 189.908 L 131.125 189.908 L 187.804 164.173 L 105.782 132.351 L 131.123 189.906 Z " fill="rgb(107,63,146)"/><path d=" M 120.86 45.286 L 82.521 23.565 L 61.132 62.497 L 120.86 45.286 Z " fill="rgb(76,111,180)"/><path d=" M 61.986 108.682 L 20.624 93.739 L 47.271 150.684 L 61.986 108.682 Z " fill="rgb(58,171,225)"/><path d=" M 105.782 245.631 L 77.762 161.129 L 50.166 217.606 L 105.782 245.631 Z " fill="rgb(240,99,57)"/><path d=" M 154.178 47.914 L 90.996 109.831 L 153.072 110.952 L 154.178 47.914 Z " fill="rgb(246,236,60)"/><path d=" M 143.901 295.836 L 143.901 251.254 L 100 295.836 L 143.901 295.836 Z " fill="rgb(58,171,225)"/><path d=" M 12.196 206.673 L 12.196 295.836 L 56.098 251.254 L 12.196 206.673 Z " fill="rgb(143,199,75)"/><path d=" M 143.901 251.254 L 187.804 295.836 L 187.804 251.254 L 187.804 206.673 L 143.901 251.254 Z " fill="rgb(58,171,225)"/><path d=" M 143.901 251.254 L 143.901 295.836 L 187.804 295.836 L 143.901 251.254 L 143.901 251.254 Z " fill="rgb(191,59,62)"/><path d=" M 143.901 295.836 L 100 295.836 L 143.901 340.417 L 143.901 340.419 L 187.804 295.836 L 143.901 295.836 Z " fill="rgb(107,63,146)"/><path d=" M 143.901 340.419 L 100 385 C 124.246 385 146.197 375.021 162.087 358.884 C 177.975 342.75 187.804 320.458 187.804 295.836 L 143.901 340.419 Z " fill="rgb(76,111,180)"/><path d=" M 12.196 295.836 C 12.196 312.083 16.496 327.301 23.972 340.419 C 27.826 347.181 32.508 353.396 37.913 358.884 L 56.098 340.419 L 100 295.836 L 12.196 295.836 Z " fill="rgb(240,99,57)"/><path d=" M 143.901 340.417 L 100 295.836 L 100 340.419 L 100 385 L 143.901 340.419 L 143.901 340.417 Z " fill="rgb(143,199,75)"/><path d=" M 56.098 340.419 L 37.913 358.884 C 53.803 375.021 75.753 385 100 385 L 100 340.419 L 100 295.836 L 56.098 340.419 Z " fill="rgb(246,236,60)"/></g></svg>